# xmcd
#
# Track frame offsets:
#	150
#	15928
#	31421
#	50762
#	72730
#	90329
#	106383
#	121407
#	136390
#	154807
#	174823
#	192010
#	209429
#	227095
#	241866
#
# Disc length: 3415 seconds
#
# Revision: 0
# Processed by: cddbd v1.4PL0 Copyright (c) Steve Scherf et al.
# Submitted via: dBpowerAMP V4.0
#
DISCID=c20d550f
DTITLE=Juliano Cezar - Ao Vivo
DYEAR=2002
DGENRE=Country
TTITLE0=A Dois Passos do Paraiso
TTITLE1=A Malvada
TTITLE2=Amo Você
TTITLE3=Bem aos Olho da Lua
TTITLE4=Cowboy Vagabundo
TTITLE5=Faz Ela Feliz
TTITLE6=Goianeiro
TTITLE7=Liguei para Dizer que te Amo
TTITLE8=Meu Amor Fugiu de Mim
TTITLE9=Minha História
TTITLE10=Meu Amor
TTITLE11=Quem Será Seu Outro Amor
TTITLE12=Rumo a Goiania
TTITLE13=Soltei As Suas Rédeas
TTITLE14=Telefone Mudo
EXTD=Andre Luis Bertini
EXTT0=
EXTT1=
EXTT2=
EXTT3=
EXTT4=
EXTT5=
EXTT6=
EXTT7=
EXTT8=
EXTT9=
EXTT10=
EXTT11=
EXTT12=
EXTT13=
EXTT14=
PLAYORDER=
